<svg width="24" height="23" viewBox="0 0 24 23" fill="none" xmlns="http://www.w3.org/2000/svg">
<g filter="url(#filter0_d_2500_2055)">
<path d="M12 0.75C10.0716 0.75 8.18657 1.32183 6.58319 2.39317C4.97982 3.46451 3.73013 4.98726 2.99218 6.76884C2.25422 8.55042 2.06114 10.5108 2.43735 12.4021C2.81355 14.2934 3.74215 16.0307 5.10571 17.3943C6.46928 18.7579 8.20656 19.6865 10.0979 20.0627C11.9892 20.4389 13.9496 20.2458 15.7312 19.5078C17.5127 18.7699 19.0355 17.5202 20.1068 15.9168C21.1782 14.3134 21.75 12.4284 21.75 10.5C21.7473 7.91498 20.7192 5.43661 18.8913 3.60872C17.0634 1.78084 14.585 0.75273 12 0.75ZM6.945 17.0156C7.48757 16.1671 8.23501 15.4688 9.11843 14.9851C10.0019 14.5013 10.9928 14.2478 12 14.2478C13.0072 14.2478 13.9982 14.5013 14.8816 14.9851C15.765 15.4688 16.5124 16.1671 17.055 17.0156C15.6097 18.1397 13.831 18.7499 12 18.7499C10.169 18.7499 8.39032 18.1397 6.945 17.0156ZM9 9.75C9 9.15666 9.17595 8.57664 9.5056 8.08329C9.83524 7.58994 10.3038 7.20542 10.852 6.97836C11.4001 6.7513 12.0033 6.69189 12.5853 6.80764C13.1672 6.9234 13.7018 7.20912 14.1213 7.62868C14.5409 8.04824 14.8266 8.58279 14.9424 9.16473C15.0581 9.74667 14.9987 10.3499 14.7716 10.8981C14.5446 11.4462 14.1601 11.9148 13.6667 12.2444C13.1734 12.5741 12.5933 12.75 12 12.75C11.2044 12.75 10.4413 12.4339 9.87868 11.8713C9.31607 11.3087 9 10.5456 9 9.75ZM18.165 15.9759C17.3285 14.7638 16.1524 13.8261 14.7844 13.2806C15.5192 12.7019 16.0554 11.9085 16.3184 11.0108C16.5815 10.1132 16.5582 9.1559 16.252 8.27207C15.9457 7.38825 15.3716 6.62183 14.6096 6.0794C13.8475 5.53696 12.9354 5.24548 12 5.24548C11.0646 5.24548 10.1525 5.53696 9.39044 6.0794C8.62839 6.62183 8.05432 7.38825 7.74805 8.27207C7.44179 9.1559 7.41855 10.1132 7.68157 11.0108C7.94459 11.9085 8.4808 12.7019 9.21563 13.2806C7.84765 13.8261 6.67147 14.7638 5.835 15.9759C4.77804 14.7873 4.0872 13.3185 3.84567 11.7464C3.60415 10.1743 3.82224 8.56584 4.47368 7.11478C5.12512 5.66372 6.18213 4.43192 7.51745 3.56769C8.85276 2.70346 10.4094 2.24367 12 2.24367C13.5906 2.24367 15.1473 2.70346 16.4826 3.56769C17.8179 4.43192 18.8749 5.66372 19.5263 7.11478C20.1778 8.56584 20.3959 10.1743 20.1543 11.7464C19.9128 13.3185 19.222 14.7873 18.165 15.9759Z" fill="#1A1A1A"/>
</g>
<defs>
<filter id="filter0_d_2500_2055" x="-1.75" y="0.75" width="27.5" height="27.5" filterUnits="userSpaceOnUse" color-interpolation-filters="sRGB">
<feFlood flood-opacity="0" result="BackgroundImageFix"/>
<feColorMatrix in="SourceAlpha" type="matrix" values="0 0 0 0 0 0 0 0 0 0 0 0 0 0 0 0 0 0 127 0" result="hardAlpha"/>
<feOffset dy="4"/>
<feGaussianBlur stdDeviation="2"/>
<feComposite in2="hardAlpha" operator="out"/>
<feColorMatrix type="matrix" values="0 0 0 0 0 0 0 0 0 0 0 0 0 0 0 0 0 0 0.25 0"/>
<feBlend mode="normal" in2="BackgroundImageFix" result="effect1_dropShadow_2500_2055"/>
<feBlend mode="normal" in="SourceGraphic" in2="effect1_dropShadow_2500_2055" result="shape"/>
</filter>
</defs>
</svg>
