<svg width="28" height="31" viewBox="0 0 28 31" fill="none" xmlns="http://www.w3.org/2000/svg">
<g filter="url(#filter0_d_120_692)">
<path d="M23.121 15.5559C22.3072 14.1562 21.875 12.1472 21.875 9.75C21.875 7.66142 21.0453 5.65838 19.5685 4.18153C18.0916 2.70469 16.0886 1.875 14 1.875C11.9114 1.875 9.90841 2.70469 8.43156 4.18153C6.95471 5.65838 6.12503 7.66142 6.12503 9.75C6.12503 12.1481 5.69471 14.1562 4.88096 15.5559C4.71491 15.8414 4.6269 16.1656 4.62574 16.4958C4.62459 16.8261 4.71035 17.1509 4.8744 17.4375C5.03742 17.7243 5.27402 17.9624 5.5598 18.1272C5.84557 18.292 6.17015 18.3775 6.50003 18.375H9.8919C9.98493 19.4003 10.458 20.3537 11.2181 21.048C11.9783 21.7423 12.9705 22.1273 14 22.1273C15.0295 22.1273 16.0218 21.7423 16.7819 21.048C17.5421 20.3537 18.0151 19.4003 18.1082 18.375H21.5C21.8294 18.377 22.1534 18.2913 22.4387 18.1265C22.7239 17.9617 22.9601 17.7239 23.1228 17.4375C23.2876 17.1513 23.3742 16.8267 23.3738 16.4965C23.3735 16.1662 23.2863 15.8418 23.121 15.5559ZM14 19.875C13.5678 19.8751 13.1488 19.7258 12.8139 19.4525C12.4791 19.1791 12.249 18.7985 12.1625 18.375H15.8375C15.7511 18.7985 15.521 19.1791 15.1861 19.4525C14.8513 19.7258 14.4323 19.8751 14 19.875ZM7.1244 16.125C7.95409 14.4375 8.37503 12.2944 8.37503 9.75C8.37503 8.25816 8.96766 6.82742 10.0226 5.77252C11.0774 4.71763 12.5082 4.125 14 4.125C15.4919 4.125 16.9226 4.71763 17.9775 5.77252C19.0324 6.82742 19.625 8.25816 19.625 9.75C19.625 12.2934 20.045 14.4375 20.8747 16.125H7.1244Z" fill="#1A1A1A"/>
</g>
<defs>
<filter id="filter0_d_120_692" x="-2" y="0" width="32" height="32" filterUnits="userSpaceOnUse" color-interpolation-filters="sRGB">
<feFlood flood-opacity="0" result="BackgroundImageFix"/>
<feColorMatrix in="SourceAlpha" type="matrix" values="0 0 0 0 0 0 0 0 0 0 0 0 0 0 0 0 0 0 127 0" result="hardAlpha"/>
<feOffset dy="4"/>
<feGaussianBlur stdDeviation="2"/>
<feComposite in2="hardAlpha" operator="out"/>
<feColorMatrix type="matrix" values="0 0 0 0 0 0 0 0 0 0 0 0 0 0 0 0 0 0 0.25 0"/>
<feBlend mode="normal" in2="BackgroundImageFix" result="effect1_dropShadow_120_692"/>
<feBlend mode="normal" in="SourceGraphic" in2="effect1_dropShadow_120_692" result="shape"/>
</filter>
</defs>
</svg>
